<?xml version="1.0" encoding="UTF-8"?>
<svg version="1.1" xmlns="http://www.w3.org/2000/svg" width="512" height="512">
<path d="M0 0 C1.47389106 -0.00525335 2.94777877 -0.01153597 4.42166138 -0.01878357 C7.49269567 -0.02911748 10.56326461 -0.02472977 13.63427734 -0.01000977 C17.52970676 0.00715295 21.42365738 -0.01632137 25.31892204 -0.05149937 C28.35801584 -0.07368097 31.39676715 -0.07198224 34.4359169 -0.06373405 C35.87014512 -0.06292554 37.30440138 -0.06957353 38.73855209 -0.08450508 C54.27315652 -0.22148741 66.36830607 3.70394724 77.59375 14.6640625 C82.44576988 19.77762249 85.64470914 25.11693985 88.4453125 31.56640625 C90.22035156 31.60507812 90.22035156 31.60507812 92.03125 31.64453125 C103.40063789 32.00422303 113.21117385 32.73511166 121.9140625 40.86328125 C128.35418829 48.0262783 130.79381968 55.43375456 130.5703125 64.94140625 C130.56128906 65.67746094 130.55226563 66.41351563 130.54296875 67.171875 C130.51961394 68.97019505 130.48375086 70.76834536 130.4453125 72.56640625 C131.66089844 72.53289062 132.87648438 72.499375 134.12890625 72.46484375 C141.73990317 72.47489569 148.38783707 75.69345053 153.91015625 80.86328125 C158.34911265 85.78792499 160.43921915 90.02401406 161.4453125 96.56640625 C162.72994385 96.53498535 162.72994385 96.53498535 164.04052734 96.50292969 C167.26476959 96.43413424 170.48863369 96.38430799 173.71337891 96.34667969 C175.10022406 96.32675283 176.48698732 96.29960065 177.87353516 96.26464844 C189.05682855 95.99011272 198.26206443 96.87752234 206.7578125 104.81640625 C213.23170322 111.00573034 218.11633148 117.78949957 218.640625 126.99609375 C218.60582031 128.70152344 218.60582031 128.70152344 218.5703125 130.44140625 C218.55226563 131.59382812 218.53421875 132.74625 218.515625 133.93359375 C218.48082031 135.23683594 218.48082031 135.23683594 218.4453125 136.56640625 C219.57066406 136.47939453 219.57066406 136.47939453 220.71875 136.390625 C229.51713037 136.00278707 235.87366627 137.4432989 242.515625 143.43359375 C249.53564487 150.98231805 251.20769512 158.46233009 250.8515625 168.61328125 C249.97113428 177.18052506 246.14721065 182.60684025 239.703125 188.09375 C232.84331766 192.56805341 227.29785409 192.9821101 219.26171875 192.859375 C218.20621323 192.85513016 217.1507077 192.85088531 216.06321716 192.84651184 C212.71114979 192.82979674 209.3596964 192.79215713 206.0078125 192.75390625 C203.72722226 192.73885018 201.44662254 192.72516339 199.16601562 192.71289062 C193.59224048 192.67991675 188.01882037 192.62978893 182.4453125 192.56640625 C182.14882813 193.17613281 181.85234375 193.78585938 181.546875 194.4140625 C178.11512549 201.11936031 172.75578654 204.73375074 165.97900391 207.61499023 C161.18819031 208.90487559 156.65216131 208.89120829 151.7109375 208.90234375 C150.1611319 208.91232895 150.1611319 208.91232895 148.58001709 208.92251587 C146.39808933 208.93261834 144.21613081 208.93733364 142.03417969 208.93701172 C138.72017606 208.94137353 135.40751732 208.97768862 132.09375 209.015625 C129.96615035 209.02149615 127.83854442 209.02546354 125.7109375 209.02734375 C124.24167816 209.0489003 124.24167816 209.0489003 122.74273682 209.07089233 C115.24586092 209.02186325 108.40468466 207.59162496 102.33526611 202.95419312 C95.55544713 197.97579382 77.90068774 201.99498591 69.77197266 203.16845703 C54.67522094 205.7505877 40.80052209 212.74125654 28.4453125 221.56640625 C41.3153125 234.43640625 54.1853125 247.30640625 67.4453125 260.56640625 C71.94423902 258.31694299 76.04387164 255.61908597 80.22460938 252.84375 C82.89233192 251.09980193 85.20834563 249.65015892 88.23046875 248.58203125 C91.20127784 247.21975548 91.68607301 245.78461363 92.9453125 242.81640625 C96.92265031 234.2583574 102.18476187 229.22495376 110.90942383 225.52001953 C115.70126017 224.22768281 120.23692357 224.24160769 125.1796875 224.23046875 C126.7294931 224.22048355 126.7294931 224.22048355 128.31060791 224.21029663 C130.49253567 224.20019416 132.67449419 224.19547886 134.85644531 224.19580078 C138.17044894 224.19143897 141.48310768 224.15512388 144.796875 224.1171875 C146.92447465 224.11131635 149.05208058 224.10734896 151.1796875 224.10546875 C152.15919373 224.09109772 153.13869995 224.07672668 154.14788818 224.06192017 C163.23150015 224.1213264 171.18282721 226.57656149 177.9140625 232.86328125 C184.58096298 240.27850729 186.83839724 247.73928787 186.4453125 257.56640625 C187.2909375 257.75203125 188.1365625 257.93765625 189.0078125 258.12890625 C194.70268484 260.51039832 198.11901424 264.46999933 201.3828125 269.62890625 C203.81198165 276.33948602 203.82122735 285.45960223 200.9453125 292.00390625 C197.40015278 297.8704517 191.96258902 302.47587628 185.4453125 304.56640625 C182.57233707 304.77884897 179.79865069 304.89414948 176.92578125 304.90234375 C176.10837967 304.90900055 175.29097809 304.91565735 174.44880676 304.92251587 C172.72329956 304.93261503 170.99775352 304.93733374 169.2722168 304.93701172 C166.6515151 304.94137511 164.03251241 304.97769455 161.41210938 305.015625 C159.72917237 305.02149598 158.04622744 305.02546349 156.36328125 305.02734375 C155.58905319 305.04171478 154.81482513 305.05608582 154.01713562 305.07089233 C147.35174314 305.01576954 142.18969264 302.97656514 137.16796875 298.56640625 C136.62011719 297.90640625 136.07226562 297.24640625 135.5078125 296.56640625 C134.94191406 295.90640625 134.37601562 295.24640625 133.79296875 294.56640625 C132.4453125 292.56640625 132.4453125 292.56640625 131.4453125 288.56640625 C125.8353125 288.89640625 120.2253125 289.22640625 114.4453125 289.56640625 C110.50198934 300.7391552 108.38763746 310.99468445 107.69140625 322.81640625 C107.4453125 325.56640625 107.4453125 325.56640625 106.4453125 328.56640625 C107.32703125 328.82421875 108.20875 329.08203125 109.1171875 329.34765625 C123.96366929 334.78439606 135.05498047 349.12364712 142.4453125 362.56640625 C143.13685945 364.55794015 143.80758172 366.55699243 144.4453125 368.56640625 C145.54254639 368.5575238 146.63978027 368.54864136 147.77026367 368.53948975 C158.12787931 368.45828295 168.48543007 368.39838277 178.84329224 368.35915756 C184.16796167 368.33831327 189.49237339 368.31005315 194.81689453 368.26464844 C199.95865399 368.22107831 205.10016608 368.1972454 210.24209595 368.18689728 C212.20044852 368.17952596 214.15878809 368.16513148 216.11703491 368.14348602 C218.8673797 368.11430357 221.61671195 368.11045643 224.3671875 368.11230469 C225.17064102 368.09792358 225.97409454 368.08354248 226.80189514 368.06872559 C233.48168425 368.11706346 238.64584803 370.11321701 243.6875 374.53125 C244.22632813 375.18222656 244.76515625 375.83320313 245.3203125 376.50390625 C245.87460937 377.15230469 246.42890625 377.80070312 247 378.46875 C251.47943347 384.96998182 251.11994978 391.93781542 250.4453125 399.56640625 C248.77481556 406.18495742 244.0001987 410.82336769 238.4453125 414.56640625 C236.1953125 415.2578125 236.1953125 415.2578125 234.4453125 415.56640625 C234.41953125 416.1490625 234.39375 416.73171875 234.3671875 417.33203125 C233.1099126 435.50536844 223.53657778 451.18436109 210.66796875 463.65625 C197.24344115 475.19332205 180.64523808 481.06158206 163.08073425 480.9540863 C162.00300682 480.95947184 160.92527938 480.96485738 159.81489354 480.97040612 C156.23869951 480.98460215 152.66288002 480.97760253 149.08666992 480.97045898 C146.50828252 480.97616694 143.92989764 480.98313285 141.35151672 480.99125671 C135.09560911 481.00838065 128.83980223 481.00929802 122.58387729 481.00404381 C117.49417907 480.99998846 112.40451043 481.0014618 107.31481361 481.00679207 C106.58807497 481.00754049 105.86133632 481.00828891 105.1125753 481.00906001 C103.63579167 481.01059163 102.15900805 481.01212998 100.68222443 481.01367498 C86.85847694 481.02737714 73.03478617 481.0219787 59.21104 481.01048977 C46.59275375 481.00056234 33.97461424 481.01349361 21.35635062 481.03742396 C8.36865055 481.06186744 -4.61898134 481.07140982 -17.60670394 481.06477123 C-24.88577809 481.06129031 -32.16473952 481.06343599 -39.44379616 481.08102226 C-46.29183166 481.09736332 -53.13958374 481.09248126 -59.98761177 481.07371712 C-62.49207253 481.07004466 -64.9965542 481.07310018 -67.50099564 481.08360291 C-92.91171514 481.18197999 -111.62653371 476.7037839 -130.6796875 458.81640625 C-140.77090001 448.40420089 -149.24532478 432.45244752 -149.62890625 417.71484375 C-149.59216797 416.65136719 -149.59216797 416.65136719 -149.5546875 415.56640625 C-150.4003125 415.38078125 -151.2459375 415.19515625 -152.1171875 415.00390625 C-157.81205984 412.62241418 -161.22838924 408.66281317 -164.4921875 403.50390625 C-166.92135665 396.79332648 -166.93060235 387.67321027 -164.0546875 381.12890625 C-160.47628459 375.20734983 -155.07698137 370.77437689 -148.5546875 368.56640625 C-145.79986858 368.32031059 -145.79986858 368.32031059 -142.75236511 368.32589722 C-141.59275269 368.32314789 -140.43314026 368.32039856 -139.23838806 368.31756592 C-137.97531326 368.32475647 -136.71223846 368.33194702 -135.41088867 368.33935547 C-134.06041472 368.33991993 -132.70994015 368.33960234 -131.35946655 368.33847046 C-127.70073441 368.33789731 -124.04213377 368.34964548 -120.38343215 368.36361837 C-116.55708596 368.37613201 -112.73073666 368.37729673 -108.90437317 368.37966919 C-101.66194534 368.3858821 -94.41957799 368.40229035 -87.17717677 368.42236817 C-78.93055151 368.44473306 -70.68392334 368.45572208 -62.43727529 368.46575904 C-45.47637773 368.48665675 -28.51553901 368.52182904 -11.5546875 368.56640625 C-11.25377197 367.63086914 -10.95285645 366.69533203 -10.64282227 365.73144531 C-5.05733771 349.48504151 9.90325004 336.70161742 24.4453125 328.56640625 C23.14677364 316.34223008 19.1785828 304.34100444 11.10375977 294.86083984 C9.02822841 292.41454133 7.41661838 289.8661583 5.76000977 287.12231445 C1.26814899 280.60832663 -3.98255449 274.95040325 -11.87758636 272.98944855 C-26.02391829 270.60020809 -40.72712757 271.50263812 -55.00115967 271.92242432 C-59.5096874 272.03156291 -64.01643659 272.04643332 -68.52611256 272.05886745 C-72.87523653 272.07629785 -77.22314175 272.13198309 -81.57172203 272.20137215 C-83.64684789 272.23363722 -85.72210042 272.25862403 -87.79740334 272.27612114 C-90.68721798 272.31014704 -93.57183997 272.39087548 -96.46020508 272.48608398 C-97.31162079 272.48919586 -98.1630365 272.49230774 -99.04025269 272.49551392 C-103.54161346 272.67135223 -103.54161346 272.67135223 -107.14699364 275.1281147 C-108.49852674 276.97367085 -108.49852674 276.97367085 -109.5613203 278.88507175 C-110.9479755 281.23207016 -112.71114908 282.43546839 -114.9921875 283.87890625 C-115.71277344 284.34941406 -116.43335938 284.81992187 -117.17578125 285.3046875 C-123.52390685 288.67159155 -129.25483193 288.88649152 -136.2890625 288.90234375 C-137.32226624 288.90900055 -138.35546997 288.91565735 -139.41998291 288.92251587 C-141.60191067 288.93261834 -143.78386919 288.93733364 -145.96582031 288.93701172 C-149.27982394 288.94137353 -152.59248268 288.97768862 -155.90625 289.015625 C-158.03384965 289.02149615 -160.16145558 289.02546354 -162.2890625 289.02734375 C-163.75832184 289.0489003 -163.75832184 289.0489003 -165.25726318 289.07089233 C-174.19651184 289.01243023 -182.34385992 286.63249616 -188.95703125 280.37890625 C-195.15456788 273.34796005 -198.190734 265.94427467 -198.5546875 256.56640625 C-197.88961736 246.60365555 -194.29576847 238.81306829 -187.5546875 231.56640625 C-184.0546875 228.56640625 -184.0546875 228.56640625 -181.5546875 228.56640625 C-181.60109375 227.81617188 -181.6475 227.0659375 -181.6953125 226.29296875 C-182.05926944 215.97218981 -179.9120907 208.54023102 -172.921875 200.84375 C-171.5546875 199.56640625 -171.5546875 199.56640625 -169.5546875 198.56640625 C-169.06337286 196.35249454 -168.66369214 194.11808262 -168.3046875 191.87890625 C-164.64705004 171.96324899 -153.52039111 159.31089532 -139.5546875 145.56640625 C-140.15888519 145.56276062 -140.76308289 145.55911499 -141.3855896 145.55535889 C-147.71333334 145.51332493 -154.04036581 145.44383469 -160.36767578 145.35888672 C-162.724374 145.33078079 -165.08116468 145.30951502 -167.43798828 145.29541016 C-170.83934507 145.27383707 -174.23960237 145.22711154 -177.640625 145.17578125 C-178.68270111 145.17455261 -179.72477722 145.17332397 -180.7984314 145.17205811 C-190.06226019 144.98943966 -198.13552211 142.7025843 -205.0234375 136.26953125 C-212.41710041 128.0459674 -214.13658817 119.3319499 -213.8671875 108.5546875 C-213.39286115 100.16899294 -209.77999227 93.16346925 -203.5546875 87.56640625 C-195.06212417 81.17999862 -187.61548773 80.2816119 -177.1796875 80.44140625 C-175.50326172 80.45494141 -175.50326172 80.45494141 -173.79296875 80.46875 C-171.04665288 80.49222279 -168.30078278 80.52505897 -165.5546875 80.56640625 C-165.60109375 79.74398437 -165.6475 78.9215625 -165.6953125 78.07421875 C-166.04229359 67.3425894 -164.32408491 60.4735115 -157.3046875 52.25390625 C-150.88516031 45.53922839 -144.10389008 40.90442025 -134.60623169 40.32589722 C-133.09442565 40.32015191 -131.58255238 40.32529733 -130.07080078 40.33935547 C-129.24087112 40.33906342 -128.41094147 40.33877136 -127.55586243 40.33847046 C-124.82879974 40.33985723 -122.10201461 40.35538754 -119.375 40.37109375 C-117.47785593 40.3748262 -115.58070992 40.37767208 -113.68356323 40.37966919 C-108.70229728 40.38728734 -103.72114887 40.40692021 -98.7399292 40.42907715 C-93.65215647 40.44957477 -88.56436466 40.45867927 -83.4765625 40.46875 C-73.50255266 40.49016783 -63.52862988 40.5242818 -53.5546875 40.56640625 C-53.3550515 39.63911964 -53.3550515 39.63911964 -53.15138245 38.69309998 C-52.88611 37.47687706 -52.88611 37.47687706 -52.61547852 36.23608398 C-52.44113785 35.43226791 -52.26679718 34.62845184 -52.08717346 33.80027771 C-49.30244291 22.11784747 -40.22283318 12.47561278 -30.33108521 6.1493988 C-20.65091165 0.63014534 -10.9312854 -0.04814925 0 0 Z M-18.5546875 109.56640625 C-23.5046875 111.05140625 -23.5046875 111.05140625 -28.5546875 112.56640625 C-26.9046875 115.86640625 -25.2546875 119.16640625 -23.5546875 122.56640625 C-20.31607455 119.3277933 -19.08237072 116.84391926 -17.5546875 112.56640625 C-17.8846875 111.57640625 -18.2146875 110.58640625 -18.5546875 109.56640625 Z M46.4453125 136.56640625 C44.74375 139.69109375 44.74375 139.69109375 43.0078125 142.87890625 C42.65146729 143.53028564 42.29512207 144.18166504 41.92797852 144.8527832 C40.54589155 147.40551403 39.36536147 149.80625934 38.4453125 152.56640625 C51.9753125 152.56640625 65.5053125 152.56640625 79.4453125 152.56640625 C78.1253125 148.93640625 76.8053125 145.30640625 75.4453125 141.56640625 C74.9503125 139.09140625 74.9503125 139.09140625 74.4453125 136.56640625 C65.2053125 136.56640625 55.9653125 136.56640625 46.4453125 136.56640625 Z M-109.5546875 170.56640625 C-110.8773315 173.10323141 -112.18786111 175.64518276 -113.4921875 178.19140625 C-113.86537109 178.90425781 -114.23855469 179.61710938 -114.62304688 180.3515625 C-116.70252738 184.43558727 -118.09463071 187.93662835 -118.5546875 192.56640625 C-117.49725342 192.5804248 -117.49725342 192.5804248 -116.41845703 192.59472656 C-113.17153598 192.64897487 -109.92597262 192.73251349 -106.6796875 192.81640625 C-105.01679688 192.83767578 -105.01679688 192.83767578 -103.3203125 192.859375 C-93.30931794 193.15381602 -84.6983124 195.25665053 -77.5546875 202.56640625 C-74.16186029 207.13112921 -72.38152985 211.08587919 -70.5546875 216.56640625 C-64.6146875 216.56640625 -58.6746875 216.56640625 -52.5546875 216.56640625 C-52.77125 215.29925781 -52.9878125 214.03210938 -53.2109375 212.7265625 C-53.49256559 211.02740637 -53.77379423 209.32818401 -54.0546875 207.62890625 C-54.19777344 206.79810547 -54.34085937 205.96730469 -54.48828125 205.11132812 C-56.07054138 195.42940302 -55.47761135 186.306549 -54.5546875 176.56640625 C-55.70880127 176.55706055 -56.86291504 176.54771484 -58.05200195 176.53808594 C-62.38180496 176.49786144 -66.71092139 176.43201656 -71.0402832 176.35888672 C-72.90510154 176.33086371 -74.77003454 176.30955745 -76.63500977 176.29541016 C-87.05010596 176.21170995 -95.93081918 175.96679715 -105.5546875 171.56640625 C-106.8799545 171.20232347 -108.21165439 170.85821262 -109.5546875 170.56640625 Z " fill="#000000" transform="translate(245.5546875,15.43359375)"/>
<path d="M0 0 C115.5 0 231 0 350 0 C348.61258463 11.09932293 345.16618954 19.46606999 338 28 C336.88625 29.5159375 336.88625 29.5159375 335.75 31.0625 C327.0956418 41.17298831 313.80047641 46.03499183 301 48 C297.40831355 48.25997998 293.83539455 48.27500324 290.23538208 48.26069641 C289.19808232 48.26452196 288.16078256 48.26834751 287.09204948 48.27228898 C283.64090355 48.28254911 280.18992616 48.27864014 276.73876953 48.2746582 C274.25433194 48.27900853 271.76989569 48.28419275 269.28546143 48.29014587 C263.25221299 48.30212596 257.21902998 48.30469149 251.18577565 48.30234561 C246.27859878 48.30055793 241.37143537 48.30232172 236.4642601 48.30657005 C235.76413792 48.30716524 235.06401574 48.30776043 234.34267773 48.30837366 C232.92008385 48.30958549 231.49748996 48.31079962 230.07489608 48.31201603 C216.75295114 48.32287643 203.43103155 48.32073617 190.10908519 48.31463119 C177.94132643 48.30946312 165.77364775 48.32071723 153.60590483 48.33972941 C141.08950539 48.35913532 128.57314378 48.367359 116.0567292 48.36360615 C109.03875013 48.36169831 102.02083921 48.36414086 95.00287247 48.37832069 C88.40198184 48.39152371 81.8012246 48.38893719 75.20032501 48.37590981 C72.78329539 48.37354857 70.36625445 48.3762624 67.94923782 48.38453293 C48.14100142 48.44740467 30.81823662 47.01626461 15.578125 32.73828125 C6.71537767 22.97609669 1.63699121 13.09592964 0 0 Z " fill="#7F7F7F" transform="translate(113,432)"/>
<path d="M0 0 C5.61 0 11.22 0 17 0 C16.9071875 2.660625 16.9071875 2.660625 16.8125 5.375 C16.84769556 15.35880836 19.59720289 23.26328683 26 31 C26.99 31.66 27.98 32.32 29 33 C26.65895868 42.13006116 20.42950222 48.89674498 14.1484375 55.640625 C11.95814954 57.94470825 11.95814954 57.94470825 10.23046875 60.53125 C7.23824218 63.8431365 3.91942185 65.33864252 -0.0625 67.25 C-12.83560143 73.35092813 -12.83560143 73.35092813 -21 84 C-20.195625 84.309375 -20.195625 84.309375 -19.375 84.625 C-15.9982346 86.57996944 -13.69525161 89.18223695 -11 92 C-7.63953698 90.47534548 -4.92171849 88.49346241 -2 86.25 C17.37826091 72.10079362 35.69125438 71.41138114 58.91656494 71.7253418 C62.31601941 71.76681984 65.71559792 71.784647 69.11523438 71.8046875 C75.74384756 71.84842527 82.37176338 71.91727828 89 72 C89 77.28 89 82.56 89 88 C87.48792969 88.08636719 85.97585938 88.17273438 84.41796875 88.26171875 C56.98228588 90.0388563 26.1609537 97.46075462 7 119 C5.97343123 123.31158885 7.35157061 126.04297229 9.4375 129.75 C17.40354545 141.96167854 28.77798587 151.89873951 39.0625 162.125 C40.61156199 163.66903625 42.160392 165.21330526 43.70898438 166.7578125 C47.4699876 170.50789684 51.23411468 174.25481861 55 178 C53.02 181.63 51.04 185.26 49 189 C50.2065625 189.37125 50.2065625 189.37125 51.4375 189.75 C55.74324143 191.26078647 59.85364007 193.10188856 64 195 C64.26683594 194.26394531 64.53367187 193.52789062 64.80859375 192.76953125 C68.88778361 183.28708661 77.95580594 174.77088554 87 170 C87.99 170 88.98 170 90 170 C90.33773437 170.61488281 90.67546875 171.22976563 91.0234375 171.86328125 C91.46945312 172.67152344 91.91546875 173.47976563 92.375 174.3125 C92.81585938 175.11300781 93.25671875 175.91351563 93.7109375 176.73828125 C94.73513335 178.53527943 95.85267138 180.27900708 97 182 C96.74463546 185.57510349 95.77779077 188.75811903 94.625 192.125 C90.82770053 203.27609406 89.17489833 214.33395068 88 226 C86.19982422 225.75636719 86.19982422 225.75636719 84.36328125 225.5078125 C77.97706015 224.80114561 71.60563148 224.85441807 65.1875 224.875 C63.39602539 224.86919922 63.39602539 224.86919922 61.56835938 224.86328125 C53.99616182 224.87152534 46.53398824 225.2404591 39 226 C38.64808594 224.77925781 38.29617188 223.55851563 37.93359375 222.30078125 C31.7123518 201.30515933 21.42773701 186.21621022 6.0625 170.75 C5.22106445 169.9029248 4.37962891 169.05584961 3.51269531 168.18310547 C-2.69299596 162.05144085 -6.02865791 160.85401025 -14.78588867 160.79467773 C-15.68365524 160.78477814 -16.58142181 160.77487854 -17.50639343 160.76467896 C-20.47689162 160.73306544 -23.4474058 160.70830705 -26.41796875 160.68359375 C-28.47634804 160.6630241 -30.53472311 160.64202762 -32.59309387 160.62062073 C-38.01326072 160.56540122 -43.43346568 160.51599137 -48.85369873 160.46777344 C-54.38362016 160.41755757 -59.91348617 160.36187194 -65.44335938 160.30664062 C-76.29552559 160.19906051 -87.1477399 160.09761517 -98 160 C-95.11671018 158.07780678 -92.34008812 156.79465603 -89.1875 155.375 C-79.99208579 150.80502334 -77.55196638 145.10393276 -73 136 C-54.19 136 -35.38 136 -16 136 C-16 130.72 -16 125.44 -16 120 C-23.26 120 -30.52 120 -38 120 C-43.04951475 104.85145576 -44.8854941 86.7259121 -37.75 71.8125 C-35.1333076 67.00365232 -32.11201429 62.49803747 -29 58 C-28.38125 57.01 -27.7625 56.02 -27.125 55 C-25.28864455 52.40749819 -23.40907219 50.25199178 -21.25 47.9375 C-8.81087109 34.08798658 -3.08132434 17.97439196 0 0 Z " fill="#BA8B5C" transform="translate(248,112)"/>
<path d="M0 0 C1.16403099 -0.0098568 1.16403099 -0.0098568 2.35157776 -0.01991272 C4.92172343 -0.0396332 7.4918106 -0.05130782 10.06201172 -0.0612793 C11.38149118 -0.06739259 11.38149118 -0.06739259 12.7276268 -0.07362938 C17.38693761 -0.09448851 22.04621901 -0.1087888 26.70556641 -0.11816406 C31.50381718 -0.1292057 36.30160129 -0.16357993 41.09968758 -0.20333576 C44.80075911 -0.22956547 48.50172075 -0.2378617 52.20287704 -0.24144554 C53.97060153 -0.24629802 55.73832155 -0.25787362 57.50595474 -0.27648354 C77.43976142 -0.47324188 77.43976142 -0.47324188 84.52294922 6.2121582 C84.96638672 6.88118164 85.40982422 7.55020508 85.86669922 8.23950195 C86.56279297 9.2469043 86.56279297 9.2469043 87.27294922 10.2746582 C89.1538014 13.54599754 89.48271876 16.17165371 89.42919922 19.86450195 C89.42017578 20.67274414 89.41115234 21.48098633 89.40185547 22.3137207 C89.39025391 22.92860352 89.37865234 23.54348633 89.36669922 24.17700195 C88.25597046 24.19102051 88.25597046 24.19102051 87.12280273 24.20532227 C83.7242927 24.25944796 80.3270972 24.34301307 76.92919922 24.42700195 C75.76453125 24.44118164 74.59986328 24.45536133 73.39990234 24.4699707 C65.23613408 24.69993601 58.0935755 25.49456883 52.07373047 31.44262695 C47.45504228 34.40178648 42.36642603 33.31820042 37.05419922 32.92700195 C35.93207031 32.86125977 34.80994141 32.79551758 33.65380859 32.7277832 C30.89024425 32.56314533 28.12824604 32.37258495 25.36669922 32.17700195 C25.36669922 37.45700195 25.36669922 42.73700195 25.36669922 48.17700195 C26.77564453 48.16540039 28.18458984 48.15379883 29.63623047 48.1418457 C31.4838854 48.13246674 33.33154175 48.12336666 35.17919922 48.11450195 C36.10796875 48.10612305 37.03673828 48.09774414 37.99365234 48.08911133 C38.88632812 48.08588867 39.77900391 48.08266602 40.69873047 48.0793457 C41.52091064 48.07410889 42.34309082 48.06887207 43.19018555 48.06347656 C45.36669922 48.17700195 45.36669922 48.17700195 48.36669922 49.17700195 C51.78241775 49.67731401 51.78241775 49.67731401 55.36669922 49.17700195 C58.0748765 46.96897927 58.0748765 46.96897927 60.36669922 44.17700195 C63.45741368 40.84582262 65.74992634 39.90581173 70.16943359 39.67529297 C72.09967367 39.65570586 74.0302349 39.65892917 75.96044922 39.6809082 C76.98473022 39.67945297 78.00901123 39.67799774 79.06433105 39.67649841 C81.22618459 39.67815564 83.38805013 39.68969715 85.54980469 39.71044922 C88.85516577 39.73940093 92.15892212 39.73105434 95.46435547 39.71801758 C97.56722783 39.72425539 99.67009514 39.73264665 101.77294922 39.7434082 C102.75952515 39.74047256 103.74610107 39.73753693 104.76257324 39.73451233 C111.33591134 39.82470274 114.86661931 40.74449178 119.67919922 45.42700195 C121.86051106 48.98173236 121.88048944 51.06668015 121.36669922 55.17700195 C119.84677818 58.36159842 118.08373963 60.91280161 115.36669922 63.17700195 C112.37944442 64.17275355 110.51911158 64.27714096 107.40795898 64.22705078 C106.40003799 64.21406448 105.392117 64.20107819 104.35365295 64.18769836 C102.72235695 64.16113411 102.72235695 64.16113411 101.05810547 64.1340332 C98.76189011 64.1116481 96.46566555 64.09019236 94.16943359 64.06958008 C90.54377537 64.03244051 86.91858311 63.98932874 83.29321289 63.93017578 C79.79810753 63.87578372 76.30352769 63.84661609 72.80810547 63.8215332 C71.72259903 63.79775101 70.63709259 63.77396881 69.51869202 63.74946594 C68.50761887 63.74593613 67.49654572 63.74240631 66.45483398 63.73876953 C65.56675552 63.72687088 64.67867706 63.71497223 63.76368713 63.70271301 C60.56284187 64.33606018 59.40775169 65.68769058 57.36669922 68.17700195 C56.91294922 69.14637695 56.45919922 70.11575195 55.99169922 71.11450195 C53.83061758 75.18730965 50.97666787 78.33505472 46.42721558 79.80265808 C44.35820528 80.17854509 42.43753215 80.32374052 40.3359375 80.35400391 C39.16419479 80.37325676 39.16419479 80.37325676 37.96878052 80.39289856 C37.13329681 80.40028549 36.29781311 80.40767242 35.43701172 80.4152832 C34.56905975 80.42335495 33.70110779 80.4314267 32.80685425 80.43974304 C30.97281881 80.45355284 29.13875801 80.46428883 27.3046875 80.47216797 C25.4328659 80.48370237 23.56107757 80.5041772 21.68945312 80.53369141 C18.98007939 80.57640568 16.27168051 80.59254058 13.56201172 80.6027832 C12.73057648 80.62029129 11.89914124 80.63779938 11.04251099 80.65583801 C5.65827184 80.63583467 2.6492521 79.73250543 -1.63330078 76.17700195 C-5.8784915 71.4728717 -7.02057486 67.78219077 -7.00048828 61.57543945 C-6.47156306 58.12054493 -4.74504448 55.97094313 -2.74658203 53.1730957 C-0.87225737 49.81246446 -1.29725153 46.94075356 -1.63330078 43.17700195 C-2.46861328 42.84829102 -2.46861328 42.84829102 -3.32080078 42.51293945 C-10.64579735 39.46910642 -17.47006336 36.24239066 -21.13330078 28.86450195 C-23.44650015 22.70973934 -23.73244559 17.09285092 -21.13330078 10.98950195 C-16.45938788 2.61331396 -9.08514553 0.03335098 0 0 Z " fill="#79B354" transform="translate(358.63330078125,127.822998046875)"/>
<path d="M0 0 C1.3061783 -0.01180534 2.6123566 -0.02361068 3.95811605 -0.03577375 C5.40594711 -0.02358184 6.85377428 -0.01092068 8.3015976 0.00215912 C9.84090739 -0.00216935 11.38021232 -0.00868487 12.91950464 -0.01720095 C17.15154884 -0.03422108 21.38300294 -0.01999158 25.61501622 -0.00068617 C30.17814395 0.01471851 34.74119831 0.00134475 39.30432892 -0.00843048 C48.24431409 -0.02297118 57.18407249 -0.0107088 66.12403619 0.01068276 C76.5304664 0.03467105 86.9368444 0.03297973 97.34329611 0.03037685 C115.90850464 0.026685 134.47360619 0.04752669 153.03878021 0.08162689 C171.0619197 0.1147193 189.08494689 0.12888537 207.10811615 0.12264252 C226.72445048 0.11588126 246.34073773 0.11833122 265.95706511 0.13800192 C266.99400073 0.1390414 268.03093636 0.14008089 269.09929428 0.14115188 C271.18204511 0.1432428 273.26479593 0.14535378 275.34754673 0.14748505 C282.60488344 0.15438595 289.86220567 0.15504907 297.11954498 0.1536026 C305.96135049 0.15216413 314.80306433 0.16183107 323.64483941 0.18554896 C328.15782507 0.19742381 332.67068282 0.20452425 337.1836834 0.1987114 C341.31276145 0.19355012 345.44156897 0.20219029 349.57060069 0.221986 C351.06648515 0.22673657 352.56239586 0.22641204 354.05827647 0.22057563 C356.0878147 0.21342062 358.11739431 0.22643709 360.14689636 0.24050903 C361.83961111 0.24286584 361.83961111 0.24286584 363.56652212 0.24527025 C366.98489629 0.67538986 368.86612151 1.50997791 371.57344818 3.62361908 C372.74525732 7.57847491 372.97826148 9.6925485 371.32344818 13.49861908 C369.57344818 15.62361908 369.57344818 15.62361908 366.57344818 16.62361908 C364.51410137 16.7188753 362.45174615 16.75277231 360.39019871 16.75504684 C358.43597936 16.76080856 358.43597936 16.76080856 356.44228083 16.76668668 C354.98788006 16.76590639 353.53347933 16.76502759 352.07907867 16.76406097 C350.54078898 16.76664377 349.00249997 16.76965669 347.46421188 16.77306437 C343.22592199 16.78114747 338.98764902 16.78292467 334.74935234 16.78366184 C330.1828191 16.78551008 325.61629469 16.79305617 321.04976654 16.79979706 C311.06032598 16.81338934 301.07088943 16.81940625 291.08144116 16.82380772 C284.8478539 16.82656815 278.6142682 16.83080509 272.38068199 16.83531189 C255.13206231 16.84750482 237.88344388 16.85780468 220.63481998 16.86118698 C219.5305126 16.86140655 218.42620521 16.86162611 217.28843397 16.86185233 C215.62794977 16.86217975 215.62794977 16.86217975 213.93392044 16.86251378 C211.69063477 16.86295725 209.44734909 16.86340381 207.20406342 16.86385345 C205.53493307 16.8641856 205.53493307 16.8641856 203.83208292 16.86452445 C185.79011519 16.86847485 167.74818779 16.88593614 149.70623565 16.90921298 C131.19651663 16.93290123 112.68681787 16.94538765 94.17708343 16.9465549 C83.77895057 16.94747299 73.38087027 16.95325902 62.98275185 16.97137451 C54.13100922 16.98674132 45.2793354 16.99191619 36.42758197 16.98363641 C31.90864411 16.97971797 27.38984497 16.98071742 22.870924 16.99469376 C18.73752489 17.00736127 14.60436976 17.00629866 10.47097134 16.99410304 C8.97234335 16.99213358 7.47369849 16.9952816 5.97509427 17.00394741 C3.94427033 17.01495123 1.91336667 17.00580762 -0.1174612 16.99555588 C-1.24740157 16.99615297 -2.37734194 16.99675005 -3.54152292 16.99736524 C-6.75366359 16.58124281 -8.11512717 15.84941621 -10.42655182 13.62361908 C-11.21170807 11.75643158 -11.21170807 11.75643158 -11.48905182 9.74861908 C-11.60377838 9.0911972 -11.71850494 8.43377533 -11.83670807 7.75643158 C-10.65626965 1.61815181 -5.53742989 -0.00133659 0 0 Z " fill="#4C4C4C" transform="translate(107.42655181884766,399.37638092041016)"/>
<path d="M0 0 C1.14849426 -0.00953201 2.29698853 -0.01906403 3.48028564 -0.02888489 C4.70850037 -0.02797348 5.93671509 -0.02706207 7.20214844 -0.02612305 C8.47950867 -0.03040817 9.7568689 -0.0346933 11.07293701 -0.03910828 C13.77278807 -0.04654913 16.47250835 -0.04629594 19.17236328 -0.04101562 C22.60616908 -0.0352401 26.0394321 -0.05211517 29.47314835 -0.0753603 C32.77866927 -0.09377814 36.08407671 -0.08990923 39.38964844 -0.08862305 C40.60976624 -0.09783279 41.82988403 -0.10704254 43.0869751 -0.11653137 C54.02597081 -0.05784862 63.6874849 1.84657587 72.06152344 9.2746582 C78.28610559 16.58022695 81.36973289 22.93955737 81.18652344 32.6496582 C81.16847656 33.89489258 81.15042969 35.14012695 81.13183594 36.4230957 C81.10863281 37.36411133 81.08542969 38.30512695 81.06152344 39.2746582 C82.05732422 39.36553711 82.05732422 39.36553711 83.07324219 39.45825195 C91.84359725 40.29047543 91.84359725 40.29047543 96.06152344 41.2746582 C96.39152344 38.3046582 96.72152344 35.3346582 97.06152344 32.2746582 C110.17833516 31.70159361 110.17833516 31.70159361 115.06152344 35.2746582 C119.45415546 39.77530577 121.15724647 42.77364069 121.29199219 49.10668945 C121.01191058 51.7413554 120.07679863 53.83895342 119.06152344 56.2746582 C118.21707169 56.27830383 117.37261993 56.28194946 116.50257874 56.28570557 C108.51428419 56.32369377 100.52639343 56.38066861 92.53838444 56.45856094 C88.43239388 56.49794045 84.32661472 56.53017523 80.22045898 56.5456543 C76.25201782 56.56088424 72.2841582 56.59544031 68.3159771 56.64296722 C66.80790725 56.65771615 65.29975435 56.66569547 63.79161263 56.66654205 C54.46882764 56.67703117 46.43265455 56.95913567 38.90625 63.00634766 C36.14875231 64.90221855 33.85165378 64.61270544 30.54589844 64.56762695 C29.29550781 64.55795898 28.04511719 64.54829102 26.75683594 64.53833008 C25.45488281 64.51319336 24.15292969 64.48805664 22.81152344 64.4621582 C21.49410156 64.44862305 20.17667969 64.43508789 18.81933594 64.42114258 C15.56632022 64.38578371 12.31412743 64.33642854 9.06152344 64.2746582 C8.96991943 63.23607666 8.87831543 62.19749512 8.78393555 61.12744141 C7.72024748 49.90527066 4.63323627 40.59716201 -3.98144531 32.77075195 C-11.94698836 26.68132483 -20.10029291 25.22445403 -29.93847656 24.2746582 C-28.32054826 15.82547707 -23.39492107 9.69825153 -16.37597656 4.8371582 C-11.17794279 1.4894337 -6.17613481 0.02832436 0 0 Z " fill="#79B354" transform="translate(238.9384765625,31.725341796875)"/>
<path d="M0 0 C0.68969879 -0.0065712 1.37939758 -0.0131424 2.08999634 -0.01991272 C4.37819527 -0.03966047 6.66632836 -0.05131469 8.95458984 -0.0612793 C9.73711498 -0.06535482 10.51964012 -0.06943035 11.32587814 -0.07362938 C15.47180671 -0.09450153 19.61770211 -0.10879536 23.76367188 -0.11816406 C28.0340839 -0.12920003 32.30397075 -0.16356349 36.57419777 -0.20333576 C39.86690191 -0.22956754 43.15948253 -0.23786193 46.45228195 -0.24144554 C48.02546083 -0.24629864 49.59863466 -0.25787609 51.17171097 -0.27648354 C66.5013546 -0.44646618 66.5013546 -0.44646618 73.29052734 4.17700195 C76.50956867 7.4830444 78.24134322 11.07863371 80.29052734 15.17700195 C83.60879095 16.83613376 87.31175496 16.23242113 90.95458984 16.16918945 C92.73453191 16.15165807 94.51448022 16.13475126 96.29443359 16.1184082 C99.09880896 16.08756937 101.90287105 16.05221226 104.70703125 16.00561523 C107.41458895 15.96297276 110.12178588 15.9397408 112.82958984 15.91918945 C113.65697662 15.90056854 114.4843634 15.88194763 115.33682251 15.86276245 C123.8640483 15.82565416 130.27649694 18.34389061 136.52490234 24.2355957 C141.53210882 29.74130725 142.99934975 35.03306501 142.66162109 42.44262695 C141.56571575 50.51771894 137.78895773 55.22776848 131.80224609 60.5480957 C126.46832904 64.00726119 120.66646097 64.49266917 114.45068359 64.51293945 C113.36200233 64.52292465 113.36200233 64.52292465 112.25132751 64.53311157 C110.72608958 64.5431736 109.2008082 64.54793061 107.67553711 64.54760742 C105.3622086 64.55198458 103.05078549 64.58837933 100.73779297 64.6262207 C91.56216803 64.69821311 85.03897614 64.32247312 77.82958984 58.02856445 C73.50995471 53.00368277 70.95460061 49.29553328 69.88427734 42.6574707 C69.72958984 41.75641602 69.57490234 40.85536133 69.41552734 39.92700195 C69.29435547 39.0762207 69.17318359 38.22543945 69.04833984 37.34887695 C68.49772627 35.08562697 68.49772627 35.08562697 66.67294312 34.05722046 C63.49951375 32.88475036 60.79779282 32.92508181 57.4140625 32.92163086 C56.38888771 32.91620018 56.38888771 32.91620018 55.34300232 32.91065979 C53.86271115 32.90378031 52.3823947 32.90125764 50.90208817 32.90260696 C48.55600157 32.90357418 46.21037067 32.89060707 43.86434937 32.87362671 C37.19557216 32.82741476 30.52684202 32.80275362 23.85791016 32.79614258 C19.77471391 32.7911193 15.69199395 32.7668289 11.6089592 32.73081589 C10.05652098 32.72103708 8.50401709 32.71867548 6.95155716 32.72398758 C4.77578318 32.73108307 2.60142185 32.71372785 0.42578125 32.69116211 C-1.42809708 32.68688705 -1.42809708 32.68688705 -3.31942749 32.68252563 C-8.50283595 31.90957554 -11.56968812 29.44000644 -15.02197266 25.61450195 C-18.16633201 21.07264955 -18.36985349 16.5334243 -17.70947266 11.17700195 C-13.67522985 3.25793274 -8.60196747 0.06771648 0 0 Z " fill="#79B454" transform="translate(65.70947265625,111.822998046875)"/>
<path d="M0 0 C1.31190559 -0.01073296 1.31190559 -0.01073296 2.65031433 -0.02168274 C4.0856678 -0.02571609 4.0856678 -0.02571609 5.55001831 -0.02983093 C6.56012466 -0.03640213 7.57023102 -0.04297333 8.61094666 -0.04974365 C11.96026686 -0.06948427 15.30954215 -0.08114232 18.65890503 -0.09111023 C20.37555674 -0.09722352 20.37555674 -0.09722352 22.12688828 -0.10346031 C28.18671234 -0.12432643 34.24651374 -0.13862462 40.30636597 -0.147995 C46.55738724 -0.15904762 52.80805139 -0.19343316 59.05894661 -0.23316669 C63.87177174 -0.2593506 68.68451211 -0.26768854 73.49740219 -0.27127647 C75.8010079 -0.27613948 78.1046099 -0.28774522 80.4081459 -0.30631447 C83.63931538 -0.33073798 86.86956547 -0.32973438 90.10079956 -0.32279968 C91.51793495 -0.34201477 91.51793495 -0.34201477 92.96369934 -0.36161804 C100.11292742 -0.30593473 106.54251986 1.15418396 111.86984253 6.18232727 C112.31328003 6.85135071 112.75671753 7.52037415 113.21359253 8.20967102 C113.67765503 8.88127258 114.14171753 9.55287415 114.61984253 10.24482727 C117.19991772 14.7323152 117.27674745 19.11843557 116.71359253 24.14717102 C114.91548539 30.49705794 112.20379817 34.5236353 106.71359253 38.14717102 C102.53761842 39.79477978 98.98858138 40.41458198 94.51217651 40.48530579 C93.30750229 40.50774857 92.10282806 40.53019135 90.86164856 40.55331421 C89.57400101 40.56495102 88.28635345 40.57658783 86.95968628 40.58857727 C86.29844316 40.59548018 85.63720005 40.60238308 84.95591927 40.60949516 C81.46181155 40.64519101 77.96786252 40.66880879 74.47360229 40.68257141 C70.87273876 40.69917323 67.27382059 40.75770936 63.67361355 40.82571507 C60.89484648 40.87052432 58.1165474 40.88406665 55.33745003 40.88918877 C53.36690266 40.90088603 51.39664426 40.94594142 49.42658997 40.99154663 C40.68374968 40.94842142 40.68374968 40.94842142 37.84689331 38.60546875 C36.59694005 36.83753992 35.68428211 35.07544474 34.71359253 33.14717102 C32.36620455 31.18525848 32.36620455 31.18525848 29.83859253 29.83467102 C29.03679565 29.36416321 28.23499878 28.8936554 27.40890503 28.40888977 C21.29272651 25.5458091 15.57121094 24.83223132 8.93624878 24.73310852 C8.12489975 24.71374237 7.31355072 24.69437622 6.47761536 24.67442322 C3.91054481 24.61510136 1.34342824 24.56843366 -1.22390747 24.52217102 C-2.97457703 24.4839475 -4.72522866 24.44489328 -6.4758606 24.40498352 C-10.74589563 24.30943946 -15.01601857 24.22523565 -19.28640747 24.14717102 C-19.32730052 22.73465684 -19.35617852 21.3217923 -19.38015747 19.90888977 C-19.39755981 19.12215881 -19.41496216 18.33542786 -19.43289185 17.52485657 C-19.12439844 12.51749445 -16.99047047 8.72437218 -13.34500122 5.35029602 C-8.98364262 1.97686948 -5.61311011 0.0315687 0 0 Z " fill="#689A48" transform="translate(115.28640747070313,71.85282897949219)"/>
<path d="M0 0 C1.12166565 -0.00960754 2.2433313 -0.01921509 3.39898682 -0.02911377 C4.61664734 -0.03336365 5.83430786 -0.03761353 7.08886719 -0.04199219 C8.33698181 -0.04769226 9.58509644 -0.05339233 10.87103271 -0.05926514 C13.51741178 -0.06872697 16.16367712 -0.07561738 18.81005859 -0.07910156 C22.19053209 -0.08457306 25.5706001 -0.10857122 28.95094681 -0.13707352 C32.18438935 -0.16025904 35.41785317 -0.16215417 38.65136719 -0.16699219 C39.86093079 -0.17933899 41.07049438 -0.19168579 42.31671143 -0.20440674 C48.98475515 -0.18676422 54.16207035 -0.08151097 59.28027344 4.69628906 C63.46938771 10.17436157 64.25726621 13.347388 63.63574219 20.16113281 C61.81039627 25.43435434 59.02855016 27.95804367 54.63574219 31.16113281 C50.87726045 32.41396006 47.380833 32.28495117 43.46777344 32.25878906 C42.67296066 32.25737411 41.87814789 32.25595917 41.05924988 32.25450134 C38.52220893 32.24890659 35.98525643 32.23635509 33.44824219 32.22363281 C31.72754034 32.21861713 30.0068371 32.21405434 28.28613281 32.20996094 C24.0692745 32.19979003 19.85260728 32.18021365 15.63574219 32.16113281 C15.63574219 37.44113281 15.63574219 42.72113281 15.63574219 48.16113281 C20.91574219 48.16113281 26.19574219 48.16113281 31.63574219 48.16113281 C30.50249623 56.09385453 30.50249623 56.09385453 27.88574219 58.97363281 C27.39589844 59.53695312 26.90605469 60.10027344 26.40136719 60.68066406 C21.65448836 64.66090095 16.49210306 64.46837234 10.60839844 64.46191406 C9.74186142 64.46619919 8.8753244 64.47048431 7.98252869 64.47489929 C6.15445833 64.48062824 4.32636518 64.48115345 2.49829102 64.47680664 C-0.28897218 64.4736473 -3.07517261 64.49712114 -5.86230469 64.52246094 C-7.64290231 64.52473424 -9.42350278 64.52543728 -11.20410156 64.52441406 C-12.03239975 64.53362381 -12.86069794 64.54283356 -13.71409607 64.55232239 C-18.67327153 64.51293429 -22.06374545 63.89663317 -26.36425781 61.16113281 C-31.01779675 55.99053399 -32.83117886 52.55861671 -32.68066406 45.66503906 C-32.07049994 40.83645628 -29.44712245 38.15850814 -25.98925781 34.97363281 C-23.36425781 33.16113281 -23.36425781 33.16113281 -20.17675781 31.59863281 C-17.12118303 30.32565991 -17.12118303 30.32565991 -15.36425781 27.16113281 C-15.64508579 24.82089966 -15.98894335 22.48808245 -16.36425781 20.16113281 C-16.8173804 15.42394212 -16.87095645 12.15576347 -14.67675781 7.84863281 C-10.17758258 2.6198616 -6.86410318 0.04733864 0 0 Z " fill="#79B354" transform="translate(96.3642578125,223.8388671875)"/>
<path d="M0 0 C1.7790271 0.01135986 1.7790271 0.01135986 3.59399414 0.02294922 C22.47618474 0.37598369 39.09809864 5.95341683 52.8125 19.4375 C60.8125 29.02228605 60.8125 29.02228605 60.8125 32.4375 C21.8725 32.4375 -17.0675 32.4375 -57.1875 32.4375 C-51.64103606 18.57134014 -39.56925798 10.00231812 -26.19506836 4.21069336 C-17.46951166 0.85013905 -9.3133178 -0.08347998 0 0 Z " fill="#79B354" transform="translate(310.1875,351.5625)"/>
<path d="M0 0 C0.89297791 -0.00570007 1.78595581 -0.01140015 2.70599365 -0.01727295 C4.59906833 -0.02672986 6.49215952 -0.03325967 8.38525391 -0.03710938 C11.27145476 -0.04678974 14.15693589 -0.07779591 17.04296875 -0.109375 C18.88280827 -0.11590764 20.72265289 -0.12115709 22.5625 -0.125 C23.42208313 -0.1373468 24.28166626 -0.1496936 25.16729736 -0.16241455 C31.82070778 -0.13788266 35.9758726 1.17814488 40.859375 5.953125 C43.26415482 9.52594073 43.79150686 11.94698942 44.046875 16.203125 C41.406875 16.203125 38.766875 16.203125 36.046875 16.203125 C36.046875 21.483125 36.046875 26.763125 36.046875 32.203125 C37.28824219 32.16832031 38.52960938 32.13351562 39.80859375 32.09765625 C41.45050726 32.06950916 43.09243546 32.04220999 44.734375 32.015625 C45.55099609 31.99048828 46.36761719 31.96535156 47.20898438 31.93945312 C51.98703322 31.88142014 55.18110593 32.05408629 59.046875 35.203125 C60.45145237 38.01227974 60.29582657 40.09123034 60.046875 43.203125 C58.26703095 46.3390407 57.52379293 47.04415236 54.046875 48.203125 C49.91659394 48.42955456 45.78619274 48.43136069 41.65014648 48.44335938 C39.61986466 48.4530748 37.5905917 48.48411709 35.56054688 48.515625 C34.27857422 48.52078125 32.99660156 48.5259375 31.67578125 48.53125 C29.9134314 48.54526855 29.9134314 48.54526855 28.11547852 48.55957031 C24.76659834 48.1705684 23.41609264 47.55473287 21.046875 45.203125 C20.0876659 42.65212494 19.54624659 40.13780956 18.953125 37.48046875 C18.26214815 35.10606485 18.26214815 35.10606485 16.31591797 34.07788086 C13.68339845 33.06299841 11.65394273 32.94826334 8.8359375 32.9296875 C7.83820313 32.9090625 6.84046875 32.8884375 5.8125 32.8671875 C3.72664418 32.84124402 1.64067845 32.82295609 -0.4453125 32.8125 C-6.59349947 32.66988742 -10.2709278 32.31044823 -14.953125 28.203125 C-19.2554009 23.43573819 -20.31595003 19.76565205 -20.234375 13.484375 C-19.64493111 8.70333014 -16.80491703 5.95351322 -13.328125 2.890625 C-8.94173446 -0.22602091 -5.23438236 0.02563789 0 0 Z " fill="#78B354" transform="translate(371.953125,255.796875)"/>
<path d="M0 0 C0.85872208 -0.0049649 1.71744415 -0.00992981 2.60218811 -0.01504517 C5.45192254 -0.0296868 8.30160127 -0.03647286 11.15136719 -0.04199219 C13.12953697 -0.04774293 15.10770673 -0.05350068 17.08587646 -0.05926514 C21.23873149 -0.06978146 25.39156712 -0.07561968 29.54443359 -0.07910156 C34.86193515 -0.08458112 40.17917998 -0.10859501 45.4966011 -0.13707352 C49.58529402 -0.15571404 53.67392535 -0.1609063 57.76265717 -0.16243744 C59.72263743 -0.16546237 61.68261666 -0.17348553 63.64255524 -0.18662262 C66.38820286 -0.20370911 69.13322679 -0.20179626 71.87890625 -0.1953125 C72.68640823 -0.20452728 73.49391022 -0.21374207 74.32588196 -0.22323608 C79.18386022 -0.1873647 82.48311934 0.4902904 86.69824219 3.16113281 C89.07324219 5.84863281 89.07324219 5.84863281 90.69824219 8.16113281 C89.50859863 8.17047852 88.31895508 8.17982422 87.09326172 8.18945312 C82.63862997 8.22961723 78.18466983 8.29544707 73.73046875 8.36865234 C71.81030976 8.39670976 69.89003855 8.4179993 67.96972656 8.43212891 C53.29895687 8.27139521 53.29895687 8.27139521 39.69824219 13.16113281 C38.64636719 13.73863281 37.59449219 14.31613281 36.51074219 14.91113281 C30.43465193 19.77200502 26.42672229 25.41242101 22.69824219 32.16113281 C18.39329204 32.26048369 14.08896036 32.33282549 9.78320312 32.38085938 C8.32051967 32.40089613 6.85791553 32.42813385 5.39550781 32.46289062 C3.28528209 32.51176506 1.17612083 32.53417941 -0.93457031 32.55175781 C-2.83553467 32.58317871 -2.83553467 32.58317871 -4.77490234 32.61523438 C-10.07476658 31.93284842 -13.097825 29.49522052 -16.61425781 25.59863281 C-19.75861717 21.05678041 -19.96213865 16.51755516 -19.30175781 11.16113281 C-14.82930392 2.38187146 -9.29392982 0.01273825 0 0 Z " fill="#689948" transform="translate(299.3017578125,103.8388671875)"/>
<path d="M0 0 C0.66 0.66 1.32 1.32 2 2 C1.63277125 5.79255185 0.2754082 8.79628854 -1.43359375 12.16796875 C-1.91763672 13.14443359 -2.40167969 14.12089844 -2.90039062 15.12695312 C-3.91651276 17.15015946 -4.93727121 19.17104462 -5.96289062 21.18945312 C-9.06580121 27.47356818 -10.93836458 33.06440575 -12 40 C-17.28 40 -22.56 40 -28 40 C-25.48702515 22.40917608 -12.06760084 11.89973622 0 0 Z " fill="#B7895A" transform="translate(123,168)"/>
</svg>
